<svg xmlns="http://www.w3.org/2000/svg" xmlns:xlink="http://www.w3.org/1999/xlink" width="390" height="368" viewBox="0 0 390 368"><defs><filter id="a" x="56" y="0" width="318" height="309" filterUnits="userSpaceOnUse"><feOffset dy="3" input="SourceAlpha"/><feGaussianBlur stdDeviation="3" result="b"/><feFlood flood-opacity="0.259"/><feComposite operator="in" in2="b"/><feComposite in="SourceGraphic"/></filter><filter id="c" x="16" y="53" width="318" height="309" filterUnits="userSpaceOnUse"><feOffset dy="3" input="SourceAlpha"/><feGaussianBlur stdDeviation="3" result="d"/><feFlood flood-opacity="0.278"/><feComposite operator="in" in2="d"/><feComposite in="SourceGraphic"/></filter></defs><g transform="translate(0 6)"><g transform="translate(-589 2169)" style="isolation:isolate"><g transform="matrix(1, 0, 0, 1, 589, -2175)" filter="url(#a)"><g transform="translate(65 6)" fill="rgba(255,255,255,0)" stroke="#fff" stroke-width="20"><ellipse cx="150" cy="145.5" rx="150" ry="145.5" stroke="none"/><ellipse cx="150" cy="145.5" rx="140" ry="135.5" fill="none"/></g></g><g transform="translate(629 -2063)" fill="#3e0a84"><path d="M0,0H350s-30,180-50,200S70,225,50,200,0,0,0,0Z" stroke="none"/><path d="M 1.188018798828125 1 C 2.453399658203125 8.276229858398438 9.4969482421875 48.31779479980469 18.47799682617188 90.41636657714844 C 24.279541015625 117.6112289428711 29.7415771484375 140.3265991210938 34.71237182617188 157.9314117431641 C 40.89666748046875 179.8340911865234 46.3028564453125 193.7778167724609 50.78085327148438 199.3753204345703 C 55.00259399414063 204.6524505615234 68.94583129882813 208.9840850830078 91.10317993164063 211.9019470214844 C 101.2470397949219 213.2377777099609 112.9800415039063 214.2614593505859 125.9763641357422 214.9445953369141 C 138.3752746582031 215.5963134765625 151.6768646240234 215.9267730712891 165.5117340087891 215.9267730712891 C 180.6207275390625 215.9267730712891 195.7624969482422 215.5364990234375 210.5164489746094 214.7668151855469 C 225.3920440673828 213.9907684326172 239.1382293701172 212.8668670654297 251.3731842041016 211.4262237548828 C 277.5302734375 208.3463592529297 294.5484619140625 204.0373229980469 299.2929077148438 199.2929077148438 C 301.5811462402344 197.004638671875 304.1613159179688 192.2945861816406 306.9618225097656 185.2935028076172 C 309.5410766601563 178.8454132080078 312.3423767089844 170.3489990234375 315.2877807617188 160.0401916503906 C 320.2577819824219 142.6455078125 325.7191772460938 119.854362487793 331.5202331542969 92.29986572265625 C 340.5163879394531 49.56881713867188 347.5693054199219 8.377716064453125 348.8175048828125 1 L 1.188018798828125 1 M 0 0 L 350 0 C 350 0 320 180 300 200 C 289.45068359375 210.54931640625 226.0190887451172 216.9267730712891 165.51171875 216.9267730712891 C 111.3057403564453 216.9267730712891 59.45068359375 211.8133544921875 50 200 C 30 175 0 0 0 0 Z" stroke="none" fill="rgba(112,112,112,0)"/></g><g transform="matrix(1, 0, 0, 1, 589, -2175)" filter="url(#c)"><g transform="translate(25 59)" fill="rgba(255,255,255,0)" stroke="#fff" stroke-width="20"><ellipse cx="150" cy="145.5" rx="150" ry="145.5" stroke="none"/><ellipse cx="150" cy="145.5" rx="140" ry="135.5" fill="none"/></g></g><g transform="translate(589 -2024)" fill="#ffc107"><path d="M0,0H350s-30,180-50,200S70,225,50,200,0,0,0,0Z" stroke="none"/><path d="M 1.188018798828125 1 C 2.453399658203125 8.276229858398438 9.4969482421875 48.31779479980469 18.47799682617188 90.41636657714844 C 24.279541015625 117.6112289428711 29.7415771484375 140.3265991210938 34.71237182617188 157.9314117431641 C 40.89666748046875 179.8340911865234 46.3028564453125 193.7778167724609 50.78085327148438 199.3753204345703 C 55.00259399414063 204.6524505615234 68.94583129882813 208.9840850830078 91.10317993164063 211.9019470214844 C 101.2470397949219 213.2377777099609 112.9800415039063 214.2614593505859 125.9763641357422 214.9445953369141 C 138.3752746582031 215.5963134765625 151.6768646240234 215.9267730712891 165.5117340087891 215.9267730712891 C 180.6207275390625 215.9267730712891 195.7624969482422 215.5364990234375 210.5164489746094 214.7668151855469 C 225.3920440673828 213.9907684326172 239.1382293701172 212.8668670654297 251.3731842041016 211.4262237548828 C 277.5302734375 208.3463592529297 294.5484619140625 204.0373229980469 299.2929077148438 199.2929077148438 C 301.5811462402344 197.004638671875 304.1613159179688 192.2945861816406 306.9618225097656 185.2935028076172 C 309.5410766601563 178.8454132080078 312.3423767089844 170.3489990234375 315.2877807617188 160.0401916503906 C 320.2577819824219 142.6455078125 325.7191772460938 119.854362487793 331.5202331542969 92.29986572265625 C 340.5163879394531 49.56881713867188 347.5693054199219 8.377716064453125 348.8175048828125 1 L 1.188018798828125 1 M 0 0 L 350 0 C 350 0 320 180 300 200 C 289.45068359375 210.54931640625 226.0190887451172 216.9267730712891 165.51171875 216.9267730712891 C 111.3057403564453 216.9267730712891 59.45068359375 211.8133544921875 50 200 C 30 175 0 0 0 0 Z" stroke="none" fill="rgba(112,112,112,0)"/></g></g><text transform="translate(177 318)" fill="#3e0a84" font-size="174" font-family="SegoeUI-Bold, Segoe UI" font-weight="700"><tspan x="-117.586" y="0">DP</tspan></text></g></svg>