<svg xmlns="http://www.w3.org/2000/svg" width="195.788" height="355.182" viewBox="0 0 195.788 355.182">
  <path id="user" d="M106.2,141.536c41.657,0,76.371-31.713,76.371-69.768S147.856,2,106.2,2,29.828,33.713,29.828,71.768,64.543,141.536,106.2,141.536Zm0-114.166c26.383,0,48.6,20.3,48.6,44.4s-22.217,44.4-48.6,44.4-48.6-20.3-48.6-44.4S79.817,27.37,106.2,27.37Zm22.217,126.851H82.594C43.714,154.221,9,185.934,9,223.989V344.5c0,7.611,9.72,12.685,18.051,12.685H186.736c8.331,0,18.051-5.074,18.051-12.685V223.989C203.4,185.934,168.685,154.221,128.417,154.221Zm47.211,177.591H36.771V223.989c0-24.1,23.606-44.4,47.211-44.4h45.823c23.606,0,47.211,20.3,47.211,44.4V331.812Z" transform="translate(-9 -2)"/>
</svg>
