<svg xmlns="http://www.w3.org/2000/svg" width="374" height="512" viewBox="0 0 374 512">
  <path id="form" d="M287.5,183.746h63a7.5,7.5,0,1,0,0-15h-63a7.5,7.5,0,0,0,0,15ZM256,46.5a7.5,7.5,0,1,0-7.5-7.5,7.5,7.5,0,0,0,7.5,7.5Zm.128,243.18L215.4,330.411l-12.728-12.728a7.5,7.5,0,1,0-10.607,10.606l18.031,18.031a7.5,7.5,0,0,0,10.606,0l46.034-46.034a7.5,7.5,0,1,0-10.607-10.606ZM287.5,213.746h63a7.5,7.5,0,1,0,0-15h-63a7.5,7.5,0,0,0,0,15Zm0,135h63a7.5,7.5,0,1,0,0-15h-63a7.5,7.5,0,0,0,0,15ZM161.5,372h68.913a7.5,7.5,0,1,0,0-15H169V295.491h61.413a7.5,7.5,0,1,0,0-15H161.5a7.5,7.5,0,0,0-7.5,7.5V364.5a7.5,7.5,0,0,0,7.5,7.5Zm126-53.254h63a7.5,7.5,0,1,0,0-15h-63a7.5,7.5,0,0,0,0,15ZM161.5,237h68.913a7.5,7.5,0,1,0,0-15H169V160.491h61.413a7.5,7.5,0,1,0,0-15H161.5a7.5,7.5,0,0,0-7.5,7.5V229.5a7.5,7.5,0,0,0,7.5,7.5Zm244-193H330.2a18.319,18.319,0,0,0-17.654-13.546H296.9a3.143,3.143,0,0,1-2.921-2.352,39.72,39.72,0,0,0-75.966,0,3.143,3.143,0,0,1-2.921,2.352H199.453A18.319,18.319,0,0,0,181.8,44H106.5A37.542,37.542,0,0,0,69,81.5v393A37.542,37.542,0,0,0,106.5,512h299A37.542,37.542,0,0,0,443,474.5V81.5A37.542,37.542,0,0,0,405.5,44ZM196.15,48.757a3.306,3.306,0,0,1,3.3-3.3H215.1a18.054,18.054,0,0,0,17.268-12.972,24.719,24.719,0,0,1,47.273,0A18.054,18.054,0,0,0,296.9,45.454h15.644a3.306,3.306,0,0,1,3.3,3.3V92.279a3.306,3.306,0,0,1-3.3,3.3H199.453a3.306,3.306,0,0,1-3.3-3.3ZM182.445,99a18.319,18.319,0,0,0,17.008,11.582H312.547A18.319,18.319,0,0,0,329.555,99H375.5A12.514,12.514,0,0,1,388,111.5V397H345.5A17.52,17.52,0,0,0,328,414.5V457H136.5A12.514,12.514,0,0,1,124,444.5v-333A12.514,12.514,0,0,1,136.5,99ZM377.394,412,343,446.394V414.5a2.5,2.5,0,0,1,2.5-2.5ZM428,474.5A22.525,22.525,0,0,1,405.5,497h-299A22.525,22.525,0,0,1,84,474.5V81.5A22.525,22.525,0,0,1,106.5,59h74.65V84H136.5A27.531,27.531,0,0,0,109,111.5v333A27.531,27.531,0,0,0,136.5,472h199a7.408,7.408,0,0,0,.749-.038c.182-.018.359-.049.537-.08.063-.011.128-.017.191-.029.21-.042.416-.1.619-.155.03-.009.061-.014.091-.023.207-.063.409-.138.608-.218.027-.011.055-.019.081-.03.189-.078.372-.168.552-.261.037-.019.075-.034.112-.054.167-.089.327-.189.486-.291.048-.03.1-.057.145-.088.151-.1.3-.213.438-.324.05-.039.1-.073.151-.113q.284-.234.545-.493l60-60q.26-.26.493-.545c.04-.049.074-.1.113-.151.112-.143.223-.287.324-.438.032-.047.058-.1.088-.145.1-.159.2-.319.291-.486.02-.036.035-.075.054-.112.093-.181.183-.364.261-.552.011-.027.019-.055.03-.081.08-.2.155-.4.218-.608.009-.03.015-.061.023-.091.059-.2.113-.409.155-.619.013-.063.018-.128.029-.191.031-.178.062-.355.08-.537q.037-.372.038-.749v-293A27.531,27.531,0,0,0,375.5,84H330.85V59H405.5A22.525,22.525,0,0,1,428,81.5ZM202.669,182.683a7.5,7.5,0,1,0-10.606,10.606l18.032,18.031a7.5,7.5,0,0,0,10.606,0l46.034-46.034a7.5,7.5,0,1,0-10.607-10.606L215.4,195.411Z" transform="translate(-69)" fill="#3e0a84"/>
</svg>
